<?xml version="1.0" encoding="UTF-8" standalone="yes"?>
<svg version="1.2" width="100%" viewBox="0 0 1000 1000" xml:space="preserve" baseProfile="tiny-ps" xmlns="http://www.w3.org/2000/svg">
  <title>bimi-svg-tiny-12-ps</title>
  <path fill="#FFFFFF" stroke="none" d="&#xA;M662.000000,1001.000000 &#xA;&#x9;C441.333344,1001.000000 221.166672,1001.000000 1.000000,1001.000000 &#xA;&#x9;C1.000000,667.666687 1.000000,334.333344 1.000000,1.000000 &#xA;&#x9;C334.333344,1.000000 667.666687,1.000000 1001.000000,1.000000 &#xA;&#x9;C1001.000000,334.333344 1001.000000,667.666687 1001.000000,1001.000000 &#xA;&#x9;C888.166687,1001.000000 775.333313,1001.000000 662.000000,1001.000000 &#xA;M167.783157,518.500000 &#xA;&#x9;C167.783157,605.253723 167.783157,692.007446 167.783157,778.889160 &#xA;&#x9;C281.567810,778.889160 394.647095,778.889160 508.140808,778.889160 &#xA;&#x9;C508.140808,771.557678 508.140808,764.496826 508.140808,756.895996 &#xA;&#x9;C402.064331,756.895996 296.172852,756.895996 190.223175,756.895996 &#xA;&#x9;C190.223175,606.115784 190.223175,455.870514 190.223175,305.397461 &#xA;&#x9;C283.894714,305.397461 377.292328,305.397461 471.310913,305.397461 &#xA;&#x9;C471.310913,342.735107 471.310913,379.797241 471.310913,417.399323 &#xA;&#x9;C505.846649,417.399323 539.765930,417.399323 574.134766,417.399323 &#xA;&#x9;C574.134766,452.995178 574.134766,488.046753 574.134766,524.067627 &#xA;&#x9;C581.169495,518.348022 587.371582,513.123962 593.789001,508.179321 &#xA;&#x9;C596.268066,506.269196 597.280823,504.272095 597.271240,501.082520 &#xA;&#x9;C597.157288,463.085236 597.245972,425.087311 597.080627,387.090424 &#xA;&#x9;C597.070374,384.742096 595.983887,381.817932 594.375916,380.143127 &#xA;&#x9;C564.369080,348.889771 534.177429,317.813995 504.132324,286.597229 &#xA;&#x9;C501.618713,283.985596 499.143677,282.913116 495.487610,282.916534 &#xA;&#x9;C388.161163,283.017273 280.834534,282.998108 173.507965,282.998108 &#xA;&#x9;C171.731018,282.998108 169.954086,282.998138 167.782959,282.998138 &#xA;&#x9;C167.782959,361.574402 167.782959,439.537201 167.783157,518.500000 &#xA;M512.500000,194.025925 &#xA;&#x9;C475.901520,194.025925 439.303040,194.025925 402.601288,194.025925 &#xA;&#x9;C402.601288,216.509567 402.601288,238.383621 402.601288,260.351135 &#xA;&#x9;C410.901093,260.351135 418.819550,260.351135 427.302734,260.351135 &#xA;&#x9;C427.302734,246.467712 427.302734,232.891876 427.302734,219.387024 &#xA;&#x9;C521.748535,219.387024 615.623901,219.387024 709.930542,219.387024 &#xA;&#x9;C709.930542,255.351227 709.930542,290.935638 709.930542,327.119995 &#xA;&#x9;C743.242981,327.119995 776.128784,327.119995 808.941040,327.119995 &#xA;&#x9;C808.941040,440.801453 808.941040,553.878235 808.941040,667.652588 &#xA;&#x9;C757.012573,667.652588 705.416565,667.652588 652.468567,667.652588 &#xA;&#x9;C662.850342,675.702759 671.941772,682.976685 681.320557,689.859009 &#xA;&#x9;C683.523132,691.475281 686.693726,692.545593 689.423523,692.555115 &#xA;&#x9;C735.747375,692.716553 782.072083,692.670837 828.396545,692.670837 &#xA;&#x9;C830.181274,692.670837 831.966003,692.670776 834.219910,692.670776 &#xA;&#x9;C834.219910,690.407776 834.219910,688.773010 834.219910,687.138245 &#xA;&#x9;C834.219910,556.496521 834.207825,425.854767 834.286011,295.213074 &#xA;&#x9;C834.288025,291.777039 833.291016,289.327606 830.892517,286.876068 &#xA;&#x9;C802.344055,257.696136 773.815491,228.495468 745.520020,199.070969 &#xA;&#x9;C741.815918,195.219040 738.140076,193.915405 732.957947,193.925827 &#xA;&#x9;C659.805542,194.072998 586.652710,194.025940 512.500000,194.025925 &#xA;M672.504028,709.011658 &#xA;&#x9;C652.418152,695.271362 632.332275,681.531006 611.226257,667.092834 &#xA;&#x9;C611.226257,683.554077 611.226257,698.609375 611.226257,714.302979 &#xA;&#x9;C584.160767,714.302979 557.628235,714.302979 531.188232,714.302979 &#xA;&#x9;C531.188232,731.511169 531.188232,748.065125 531.188232,765.063843 &#xA;&#x9;C558.004333,765.063843 584.420166,765.063843 611.571167,765.063843 &#xA;&#x9;C611.571167,779.310913 611.571167,793.121216 611.571167,807.879333 &#xA;&#x9;C646.282654,784.116211 680.032288,761.011536 714.236145,737.595947 &#xA;&#x9;C700.216858,727.996277 686.654846,718.709717 672.504028,709.011658 &#xA;M581.185425,654.505310 &#xA;&#x9;C581.185425,649.730408 581.185425,644.955505 581.185425,639.701782 &#xA;&#x9;C608.479370,639.701782 635.066101,639.701782 661.731812,639.701782 &#xA;&#x9;C661.731812,622.624268 661.731812,606.052856 661.731812,588.990479 &#xA;&#x9;C634.849548,588.990479 608.272644,588.990479 581.168701,588.990479 &#xA;&#x9;C581.168701,574.790649 581.168701,561.071411 581.168701,546.226685 &#xA;&#x9;C546.552429,569.931946 512.829529,593.025330 478.610779,616.458374 &#xA;&#x9;C512.857422,639.895691 546.658691,663.028198 581.185608,686.657288 &#xA;&#x9;C581.185608,675.484192 581.185608,665.494019 581.185425,654.505310 &#xA;M325.500000,459.966522 &#xA;&#x9;C301.420380,459.966522 277.340790,459.966522 253.314514,459.966522 &#xA;&#x9;C253.314514,467.704712 253.314514,474.761230 253.314514,481.728119 &#xA;&#x9;C339.041687,481.728119 424.392975,481.728119 509.703125,481.728119 &#xA;&#x9;C509.703125,474.325104 509.703125,467.272247 509.703125,459.966492 &#xA;&#x9;C448.382721,459.966492 387.441345,459.966492 325.500000,459.966522 &#xA;M334.500000,546.935364 &#xA;&#x9;C392.894104,546.935364 451.288177,546.935364 509.734039,546.935364 &#xA;&#x9;C509.734039,539.242065 509.734039,532.182129 509.734039,525.111145 &#xA;&#x9;C424.040710,525.111145 338.699249,525.111145 253.289169,525.111145 &#xA;&#x9;C253.289169,532.494019 253.289169,539.544434 253.289169,546.935364 &#xA;&#x9;C280.260437,546.935364 306.880219,546.935364 334.500000,546.935364 &#xA;M274.500183,589.307983 &#xA;&#x9;C267.404205,589.307983 260.308258,589.307983 253.239868,589.307983 &#xA;&#x9;C253.239868,597.168579 253.239868,604.255615 253.239868,611.608826 &#xA;&#x9;C254.503174,611.688232 255.469971,611.802124 256.436768,611.802246 &#xA;&#x9;C318.753571,611.811096 381.070404,611.832153 443.387024,611.720459 &#xA;&#x9;C445.528168,611.716675 447.949280,610.796814 449.758728,609.585266 &#xA;&#x9;C458.336273,603.842224 466.755768,597.862610 475.201447,591.924377 &#xA;&#x9;C476.005981,591.358704 476.601288,590.495483 477.734924,589.308411 &#xA;&#x9;C409.782471,589.308411 342.641266,589.308411 274.500183,589.307983 &#xA;M379.122253,417.495178 &#xA;&#x9;C380.558685,417.372040 381.995148,417.248871 383.359802,417.131866 &#xA;&#x9;C383.359802,409.579010 383.359802,402.504761 383.359802,395.416809 &#xA;&#x9;C339.771973,395.416809 296.561981,395.416809 253.180191,395.416809 &#xA;&#x9;C253.180191,402.814484 253.180191,409.897491 253.180191,417.494659 &#xA;&#x9;C295.016479,417.494659 336.607819,417.494659 379.122253,417.495178 &#xA;M701.500000,520.812439 &#xA;&#x9;C717.243530,520.812439 732.987122,520.812439 748.635498,520.812439 &#xA;&#x9;C748.635498,512.903320 748.635498,505.822052 748.635498,498.641327 &#xA;&#x9;C705.735229,498.641327 663.179016,498.641327 620.608887,498.641327 &#xA;&#x9;C620.608887,506.179596 620.608887,513.374939 620.608887,520.812195 &#xA;&#x9;C647.539490,520.812195 674.019775,520.812195 701.500000,520.812439 &#xA;M677.500000,368.965088 &#xA;&#x9;C658.565369,368.965088 639.630798,368.965088 620.508423,368.965088 &#xA;&#x9;C620.508423,376.570007 620.508423,383.622437 620.508423,390.796509 &#xA;&#x9;C663.386963,390.796509 705.937012,390.796509 748.654541,390.796509 &#xA;&#x9;C748.654541,383.462799 748.654541,376.409119 748.654541,368.965088 &#xA;&#x9;C725.066406,368.965088 701.783203,368.965088 677.500000,368.965088 &#xA;M725.500000,433.781342 &#xA;&#x9;C690.580139,433.781342 655.660278,433.781342 620.500610,433.781342 &#xA;&#x9;C620.500610,441.400330 620.500610,448.449921 620.500610,455.669434 &#xA;&#x9;C663.366821,455.669434 705.908569,455.669434 748.666138,455.669434 &#xA;&#x9;C748.666138,448.343933 748.666138,441.287506 748.666138,433.781158 &#xA;&#x9;C741.083008,433.781158 733.791504,433.781158 725.500000,433.781342 &#xA;M622.258545,322.283661 &#xA;&#x9;C622.258545,316.360535 622.258545,310.437408 622.258545,304.388733 &#xA;&#x9;C596.826660,304.388733 572.130005,304.388733 546.388855,304.388733 &#xA;&#x9;C552.984619,311.864380 558.948792,318.703949 565.047852,325.421051 &#xA;&#x9;C565.703064,326.142639 567.142029,326.443665 568.219177,326.447571 &#xA;&#x9;C585.208923,326.509155 602.199707,326.547058 619.187378,326.349579 &#xA;&#x9;C620.222839,326.337585 621.234924,324.312378 622.258545,322.283661 &#xA;z"/>
  <path fill="#FF8734" stroke="none" d="&#xA;M167.783051,518.000000 &#xA;&#x9;C167.782959,439.537201 167.782959,361.574402 167.782959,282.998138 &#xA;&#x9;C169.954086,282.998138 171.731018,282.998108 173.507965,282.998108 &#xA;&#x9;C280.834534,282.998108 388.161163,283.017273 495.487610,282.916534 &#xA;&#x9;C499.143677,282.913116 501.618713,283.985596 504.132324,286.597229 &#xA;&#x9;C534.177429,317.813995 564.369080,348.889771 594.375916,380.143127 &#xA;&#x9;C595.983887,381.817932 597.070374,384.742096 597.080627,387.090424 &#xA;&#x9;C597.245972,425.087311 597.157288,463.085236 597.271240,501.082520 &#xA;&#x9;C597.280823,504.272095 596.268066,506.269196 593.789001,508.179321 &#xA;&#x9;C587.371582,513.123962 581.169495,518.348022 574.134766,524.067627 &#xA;&#x9;C574.134766,488.046753 574.134766,452.995178 574.134766,417.399323 &#xA;&#x9;C539.765930,417.399323 505.846649,417.399323 471.310913,417.399323 &#xA;&#x9;C471.310913,379.797241 471.310913,342.735107 471.310913,305.397461 &#xA;&#x9;C377.292328,305.397461 283.894714,305.397461 190.223175,305.397461 &#xA;&#x9;C190.223175,455.870514 190.223175,606.115784 190.223175,756.895996 &#xA;&#x9;C296.172852,756.895996 402.064331,756.895996 508.140808,756.895996 &#xA;&#x9;C508.140808,764.496826 508.140808,771.557678 508.140808,778.889160 &#xA;&#x9;C394.647095,778.889160 281.567810,778.889160 167.783157,778.889160 &#xA;&#x9;C167.783157,692.007446 167.783157,605.253723 167.783051,518.000000 &#xA;M565.476990,383.024353 &#xA;&#x9;C542.244019,358.952667 519.011108,334.880951 495.048035,310.052795 &#xA;&#x9;C495.048035,338.832123 495.048035,366.192596 495.048035,393.686554 &#xA;&#x9;C521.494690,393.686554 547.645874,393.686554 575.483093,393.686554 &#xA;&#x9;C571.690491,389.637756 568.830627,386.584717 565.476990,383.024353 &#xA;z"/>
  <path fill="#FF8735" stroke="none" d="&#xA;M513.000000,194.025940 &#xA;&#x9;C586.652710,194.025940 659.805542,194.072998 732.957947,193.925827 &#xA;&#x9;C738.140076,193.915405 741.815918,195.219040 745.520020,199.070969 &#xA;&#x9;C773.815491,228.495468 802.344055,257.696136 830.892517,286.876068 &#xA;&#x9;C833.291016,289.327606 834.288025,291.777039 834.286011,295.213074 &#xA;&#x9;C834.207825,425.854767 834.219910,556.496521 834.219910,687.138245 &#xA;&#x9;C834.219910,688.773010 834.219910,690.407776 834.219910,692.670776 &#xA;&#x9;C831.966003,692.670776 830.181274,692.670837 828.396545,692.670837 &#xA;&#x9;C782.072083,692.670837 735.747375,692.716553 689.423523,692.555115 &#xA;&#x9;C686.693726,692.545593 683.523132,691.475281 681.320557,689.859009 &#xA;&#x9;C671.941772,682.976685 662.850342,675.702759 652.468567,667.652588 &#xA;&#x9;C705.416565,667.652588 757.012573,667.652588 808.941040,667.652588 &#xA;&#x9;C808.941040,553.878235 808.941040,440.801453 808.941040,327.119995 &#xA;&#x9;C776.128784,327.119995 743.242981,327.119995 709.930542,327.119995 &#xA;&#x9;C709.930542,290.935638 709.930542,255.351227 709.930542,219.387024 &#xA;&#x9;C615.623901,219.387024 521.748535,219.387024 427.302734,219.387024 &#xA;&#x9;C427.302734,232.891876 427.302734,246.467712 427.302734,260.351135 &#xA;&#x9;C418.819550,260.351135 410.901093,260.351135 402.601288,260.351135 &#xA;&#x9;C402.601288,238.383621 402.601288,216.509567 402.601288,194.025925 &#xA;&#x9;C439.303040,194.025925 475.901520,194.025925 513.000000,194.025940 &#xA;M790.500000,301.726532 &#xA;&#x9;C798.241760,301.726532 805.983582,301.726532 813.725342,301.726532 &#xA;&#x9;C814.017944,301.204071 814.310608,300.681610 814.603210,300.159180 &#xA;&#x9;C788.270325,272.828094 761.937439,245.497040 734.946777,217.483307 &#xA;&#x9;C734.946777,246.219421 734.946777,273.652740 734.946777,301.726257 &#xA;&#x9;C753.293701,301.726257 771.396851,301.726257 790.500000,301.726532 &#xA;z"/>
  <path fill="#FF8735" stroke="none" d="&#xA;M672.798462,709.217407 &#xA;&#x9;C686.654846,718.709717 700.216858,727.996277 714.236145,737.595947 &#xA;&#x9;C680.032288,761.011536 646.282654,784.116211 611.571167,807.879333 &#xA;&#x9;C611.571167,793.121216 611.571167,779.310913 611.571167,765.063843 &#xA;&#x9;C584.420166,765.063843 558.004333,765.063843 531.188232,765.063843 &#xA;&#x9;C531.188232,748.065125 531.188232,731.511169 531.188232,714.302979 &#xA;&#x9;C557.628235,714.302979 584.160767,714.302979 611.226257,714.302979 &#xA;&#x9;C611.226257,698.609375 611.226257,683.554077 611.226257,667.092834 &#xA;&#x9;C632.332275,681.531006 652.418152,695.271362 672.798462,709.217407 &#xA;z"/>
  <path fill="#FF8734" stroke="none" d="&#xA;M581.185547,655.004639 &#xA;&#x9;C581.185608,665.494019 581.185608,675.484192 581.185608,686.657288 &#xA;&#x9;C546.658691,663.028198 512.857422,639.895691 478.610779,616.458374 &#xA;&#x9;C512.829529,593.025330 546.552429,569.931946 581.168701,546.226685 &#xA;&#x9;C581.168701,561.071411 581.168701,574.790649 581.168701,588.990479 &#xA;&#x9;C608.272644,588.990479 634.849548,588.990479 661.731812,588.990479 &#xA;&#x9;C661.731812,606.052856 661.731812,622.624268 661.731812,639.701782 &#xA;&#x9;C635.066101,639.701782 608.479370,639.701782 581.185425,639.701782 &#xA;&#x9;C581.185425,644.955505 581.185425,649.730408 581.185547,655.004639 &#xA;z"/>
  <path fill="#FF8633" stroke="none" d="&#xA;M326.000000,459.966492 &#xA;&#x9;C387.441345,459.966492 448.382721,459.966492 509.703125,459.966492 &#xA;&#x9;C509.703125,467.272247 509.703125,474.325104 509.703125,481.728119 &#xA;&#x9;C424.392975,481.728119 339.041687,481.728119 253.314514,481.728119 &#xA;&#x9;C253.314514,474.761230 253.314514,467.704712 253.314514,459.966522 &#xA;&#x9;C277.340790,459.966522 301.420380,459.966522 326.000000,459.966492 &#xA;z"/>
  <path fill="#FF8734" stroke="none" d="&#xA;M334.000000,546.935364 &#xA;&#x9;C306.880219,546.935364 280.260437,546.935364 253.289169,546.935364 &#xA;&#x9;C253.289169,539.544434 253.289169,532.494019 253.289169,525.111145 &#xA;&#x9;C338.699249,525.111145 424.040710,525.111145 509.734039,525.111145 &#xA;&#x9;C509.734039,532.182129 509.734039,539.242065 509.734039,546.935364 &#xA;&#x9;C451.288177,546.935364 392.894104,546.935364 334.000000,546.935364 &#xA;z"/>
  <path fill="#FF8A3A" stroke="none" d="&#xA;M275.000122,589.308228 &#xA;&#x9;C342.641266,589.308411 409.782471,589.308411 477.734924,589.308411 &#xA;&#x9;C476.601288,590.495483 476.005981,591.358704 475.201447,591.924377 &#xA;&#x9;C466.755768,597.862610 458.336273,603.842224 449.758728,609.585266 &#xA;&#x9;C447.949280,610.796814 445.528168,611.716675 443.387024,611.720459 &#xA;&#x9;C381.070404,611.832153 318.753571,611.811096 256.436768,611.802246 &#xA;&#x9;C255.469971,611.802124 254.503174,611.688232 253.239868,611.608826 &#xA;&#x9;C253.239868,604.255615 253.239868,597.168579 253.239868,589.307983 &#xA;&#x9;C260.308258,589.307983 267.404205,589.307983 275.000122,589.308228 &#xA;z"/>
  <path fill="#FF8735" stroke="none" d="&#xA;M378.660706,417.494934 &#xA;&#x9;C336.607819,417.494659 295.016479,417.494659 253.180191,417.494659 &#xA;&#x9;C253.180191,409.897491 253.180191,402.814484 253.180191,395.416809 &#xA;&#x9;C296.561981,395.416809 339.771973,395.416809 383.359802,395.416809 &#xA;&#x9;C383.359802,402.504761 383.359802,409.579010 383.359802,417.131866 &#xA;&#x9;C381.995148,417.248871 380.558685,417.372040 378.660706,417.494934 &#xA;z"/>
  <path fill="#FF8A3B" stroke="none" d="&#xA;M701.000000,520.812317 &#xA;&#x9;C674.019775,520.812195 647.539490,520.812195 620.608887,520.812195 &#xA;&#x9;C620.608887,513.374939 620.608887,506.179596 620.608887,498.641327 &#xA;&#x9;C663.179016,498.641327 705.735229,498.641327 748.635498,498.641327 &#xA;&#x9;C748.635498,505.822052 748.635498,512.903320 748.635498,520.812439 &#xA;&#x9;C732.987122,520.812439 717.243530,520.812439 701.000000,520.812317 &#xA;z"/>
  <path fill="#FF8634" stroke="none" d="&#xA;M678.000000,368.965088 &#xA;&#x9;C701.783203,368.965088 725.066406,368.965088 748.654541,368.965088 &#xA;&#x9;C748.654541,376.409119 748.654541,383.462799 748.654541,390.796509 &#xA;&#x9;C705.937012,390.796509 663.386963,390.796509 620.508423,390.796509 &#xA;&#x9;C620.508423,383.622437 620.508423,376.570007 620.508423,368.965088 &#xA;&#x9;C639.630798,368.965088 658.565369,368.965088 678.000000,368.965088 &#xA;z"/>
  <path fill="#FF8735" stroke="none" d="&#xA;M726.000000,433.781250 &#xA;&#x9;C733.791504,433.781158 741.083008,433.781158 748.666138,433.781158 &#xA;&#x9;C748.666138,441.287506 748.666138,448.343933 748.666138,455.669434 &#xA;&#x9;C705.908569,455.669434 663.366821,455.669434 620.500610,455.669434 &#xA;&#x9;C620.500610,448.449921 620.500610,441.400330 620.500610,433.781342 &#xA;&#x9;C655.660278,433.781342 690.580139,433.781342 726.000000,433.781250 &#xA;z"/>
  <path fill="#FF8736" stroke="none" d="&#xA;M622.258179,322.753784 &#xA;&#x9;C621.234924,324.312378 620.222839,326.337585 619.187378,326.349579 &#xA;&#x9;C602.199707,326.547058 585.208923,326.509155 568.219177,326.447571 &#xA;&#x9;C567.142029,326.443665 565.703064,326.142639 565.047852,325.421051 &#xA;&#x9;C558.948792,318.703949 552.984619,311.864380 546.388855,304.388733 &#xA;&#x9;C572.130005,304.388733 596.826660,304.388733 622.258545,304.388733 &#xA;&#x9;C622.258545,310.437408 622.258545,316.360535 622.258179,322.753784 &#xA;z"/>
  <path fill="#FFFFFE" stroke="none" d="&#xA;M565.723877,383.278015 &#xA;&#x9;C568.830627,386.584717 571.690491,389.637756 575.483093,393.686554 &#xA;&#x9;C547.645874,393.686554 521.494690,393.686554 495.048035,393.686554 &#xA;&#x9;C495.048035,366.192596 495.048035,338.832123 495.048035,310.052795 &#xA;&#x9;C519.011108,334.880951 542.244019,358.952667 565.723877,383.278015 &#xA;z"/>
  <path fill="#FFFDFC" stroke="none" d="&#xA;M790.000000,301.726379 &#xA;&#x9;C771.396851,301.726257 753.293701,301.726257 734.946777,301.726257 &#xA;&#x9;C734.946777,273.652740 734.946777,246.219421 734.946777,217.483307 &#xA;&#x9;C761.937439,245.497040 788.270325,272.828094 814.603210,300.159180 &#xA;&#x9;C814.310608,300.681610 814.017944,301.204071 813.725342,301.726532 &#xA;&#x9;C805.983582,301.726532 798.241760,301.726532 790.000000,301.726379 &#xA;z"/>
</svg>