<?xml version="1.0" encoding="UTF-8"?><svg version="1.2" baseProfile="tiny-ps" xmlns="http://www.w3.org/2000/svg" width="512" height="512" viewBox="0 0 512 512" preserveAspectRatio="xMidYMid meet"><title>Compare Bazaar</title><desc>Compare Bazaar logo for BIMI email brand indicators</desc><rect width="512" height="512" fill="#FFFFFF"/><g transform="translate(56 112) scale(0.333333)"><path d="M 482 105 L 482 145 496.500 145 L 511 145 511 120 L 511 95 681 95 L 851 95 851 159.492 L 851 223.984 910.750 224.242 L 970.500 224.500 970.500 429 L 970.500 633.500 876.624 633.755 L 782.749 634.010 801.455 648.505 L 820.162 663 910.081 663 L 1000 663 999.941 421.750 L 999.882 180.500 943.691 122.817 L 887.500 65.134 684.750 65.067 L 482 65 482 105 M 880 143.500 L 880 194 928.073 194 C 970.584 194, 976.109 193.824, 975.823 192.478 C 975.487 190.897, 882.072 93.238, 880.750 93.086 C 880.337 93.039, 880 115.725, 880 143.500 M 200 469.500 L 200 767 404.500 767 L 609 767 609 754 L 609 741 417.500 741 L 226 741 226 469.497 L 226 197.994 395.250 198.247 L 564.500 198.500 564.757 265.750 L 565.014 333 626.507 333 L 688 333 688 396.500 C 688 431.425, 688.253 460, 688.562 460 C 688.871 460, 694.946 455.218, 702.062 449.373 L 715 438.746 714.990 365.123 L 714.980 291.500 657.240 231.765 L 599.500 172.030 399.750 172.015 L 200 172 200 469.500 M 656.120 198.750 C 656.870 199.713, 662.152 205.787, 667.857 212.250 L 678.230 224 711.615 224 L 745 224 745 210.500 L 745 197 699.878 197 C 657.051 197, 654.825 197.089, 656.120 198.750 M 592 254.292 L 592 305 640.073 305 C 681.724 305, 688.103 304.805, 687.823 303.538 C 687.547 302.289, 609.804 220.925, 596.577 208.042 L 592 203.584 592 254.292 M 743 288 L 743 301 820 301 L 897 301 897 288 L 897 275 820 275 L 743 275 743 288 M 302 320 L 302 333 380.500 333 L 459 333 459 320 L 459 307 380.500 307 L 302 307 302 320 M 743 366 L 743 379 820 379 L 897 379 897 366 L 897 353 820 353 L 743 353 743 366 M 302.667 384.667 C 302.300 385.033, 302 391.108, 302 398.167 L 302 411 456.500 411 L 611 411 611 397.500 L 611 384 457.167 384 C 372.558 384, 303.033 384.300, 302.667 384.667 M 743 444 L 743 457 820 457 L 897 457 897 444 L 897 431 820 431 L 743 431 743 444 M 302 475 L 302 488 456.500 488 L 611 488 611 475 L 611 462 456.500 462 L 302 462 302 475 M 634.298 530.294 C 601.187 552.957, 574.187 571.808, 574.298 572.185 C 574.409 572.561, 601.725 591.493, 635 614.254 L 695.500 655.639 695.766 627.819 L 696.031 600 744.516 600 L 793 600 793 570.010 L 793 540.019 744.750 539.760 L 696.500 539.500 696.233 514.250 C 696.086 500.363, 695.636 489.020, 695.233 489.044 C 694.830 489.068, 667.409 507.630, 634.298 530.294 M 302 553 L 302 566 418.573 566 L 535.147 566 553.728 553 L 572.309 540 437.154 540 L 302 540 302 553 M 733 661.941 L 733 690 684.500 690 L 636 690 636 720 L 636 750 684.483 750 L 732.966 750 733.233 775.578 L 733.500 801.156 793 760.465 C 825.725 738.085, 853.100 719.209, 853.833 718.518 C 854.920 717.494, 844.135 709.713, 795.333 676.312 C 762.425 653.790, 734.938 635.029, 734.250 634.622 C 733.262 634.037, 733 639.766, 733 661.941" stroke="none" fill="#F58220" fill-rule="evenodd"/></g></svg>